<svg xmlns="http://www.w3.org/2000/svg">
  <symbol id="telegram" viewBox="0 0 512 512">
    <rect width="512" height="512" rx="15%" fill="#37aee2"/>
    <path fill="#c8daea" d="M199 404c-11 0-10-4-13-14l-32-105 245-144"/>
    <path fill="#a9c9dd" d="M199 404c7 0 11-4 16-8l45-43-56-34"/>
    <path fill="#f6fbfe" d="m204 319 135 99c14 9 26 4 30-14l55-258c5-22-9-32-24-25L79 245c-21 8-21 21-4 26l83 26 190-121c9-5 17-3 11 4"/>
  </symbol>
  <symbol id="phone" viewBox="0 0 24 24">
    <path fill="currentColor" d="M15.05 5A5 5 0 0 1 19 8.95M15.05 1A9 9 0 0 1 23 8.94m-1 7.98v3a2 2 0 0 1-2.18 2 19.79 19.79 0 0 1-8.63-3.07 19.5 19.5 0 0 1-6-6 19.79 19.79 0 0 1-3.07-8.67A2 2 0 0 1 4.11 2h3a2 2 0 0 1 2 1.72 12.84 12.84 0 0 0 .7 2.81 2 2 0 0 1-.45 2.11L8.09 9.91a16 16 0 0 0 6 6l1.27-1.27a2 2 0 0 1 2.11-.45 12.84 12.84 0 0 0 2.81.7A2 2 0 0 1 22 16.92z"></path>
  </symbol>
<symbol id="viber" viewBox="0 0 512 512">
  <circle style="fill:#6f3faa" cx="256" cy="256" r="256"/>
  <path style="fill:#512d84" d="M367.061 140.443c-62.312-15.05-124.735-32.654-188.637-10.288-41.374 15.515-41.374 60.337-39.65 98.263 0 10.343-12.067 24.135-6.896 36.202 10.343 34.478 18.963 68.956 55.165 86.195 5.172 3.448 0 10.343 3.448 15.515-1.724 0-5.172 1.724-5.172 3.448 0 8.263 3.708 20.902 1.245 29.05l110.006 109.96c113.09-18.01 201.478-110.068 213.914-224.921L367.061 140.443z"/>
</symbol>
<symbol id="burger" viewBox="0 0 24 24">
<path d="M5 6.5H19V8H5V6.5Z" fill="#1F2328"/>
<path d="M5 16.5H19V18H5V16.5Z" fill="#1F2328"/>
<path d="M5 11.5H19V13H5V11.5Z" fill="#1F2328"/>
</symbol>
</svg>

